<?xml version="1.0" encoding="utf-8"?>
<!-- Generator: Adobe Illustrator 21.0.0, SVG Export Plug-In . SVG Version: 6.00 Build 0)  -->
<svg version="1.1" id="图层_1" xmlns="http://www.w3.org/2000/svg" xmlns:xlink="http://www.w3.org/1999/xlink" x="0px" y="0px"
	 viewBox="0 0 12 12" style="enable-background:new 0 0 12 12;" xml:space="preserve">
<style type="text/css">
	.st0{fill:#FFFFFF;}
</style>
<g>
	<path class="st0" d="M11.3,0c0.2,0,0.4,0.1,0.5,0.2C11.9,0.4,12,0.5,12,0.8s-0.1,0.4-0.2,0.5L7.1,6l4.7,4.7
		c0.1,0.2,0.2,0.3,0.2,0.5c0,0.2-0.1,0.4-0.2,0.5c-0.2,0.1-0.3,0.2-0.5,0.2c-0.2,0-0.4-0.1-0.5-0.2L6,7.1l-4.7,4.7
		C1.1,11.9,1,12,0.8,12s-0.4-0.1-0.5-0.2S0,11.5,0,11.3c0-0.2,0.1-0.4,0.2-0.5L5,6L0.2,1.3C0.1,1.1,0,1,0,0.8s0.1-0.4,0.2-0.5
		S0.5,0,0.8,0s0.4,0.1,0.5,0.2L6,5l4.7-4.7C10.9,0.1,11,0,11.3,0"/>
</g>
</svg>
