<svg id="图层_1" data-name="图层 1" xmlns="http://www.w3.org/2000/svg" viewBox="0 0 15.95 15.95"><defs><style>.cls-1{fill:#fff;}</style></defs><title>限高分析</title><path class="cls-1" d="M16.37.59v16h-1V1.59h-14v15h-1V.59Zm-7,2.22V15.52H2.92V5.45c0-.71.4-.91.5-.91Zm1,1.42,2.89,1h.1c.1,0,.5.1.5,1.12v9.15H10.39V4.23ZM5.71,13.69h-1v1h1Zm2.29,0H7v1H8Zm4.69,0h-1v1h1ZM5.71,12h-1v1h1V12ZM8,12H7v1H8V12Zm4.69,0h-1v1h1V12Zm-7-1.63h-1v1h1v-1Zm2.29,0H7v1H8v-1Zm4.69,0h-1v1h1v-1Zm-7-1.73h-1v1h1ZM8,8.6H7v1H8Zm4.69,0h-1v1h1Zm-7-1.72h-1v1h1ZM8,6.88H7v1H8Zm4.69,0h-1v1h1Zm-7-1.63h-1v1h1ZM8,5.25H7v1H8Z" transform="translate(-0.43 -0.59)"/></svg>