<svg id="图层_1" data-name="图层 1" xmlns="http://www.w3.org/2000/svg" viewBox="0 0 16.71 16.71"><defs><style>.cls-1{fill:#fff;}</style></defs><title>日照分析</title><path class="cls-1" d="M8.49,13.8a.59.59,0,0,1,.59.6v1.79a.59.59,0,0,1-.59.6.6.6,0,0,1-.6-.6V14.4a.6.6,0,0,1,.6-.6Zm4.64-1.57,1.26,1.27a.59.59,0,0,1,0,.84.61.61,0,0,1-.85,0v0l-1.27-1.26a.6.6,0,0,1,.85-.85Zm-8.44,0a.61.61,0,0,1,0,.85L3.42,14.34a.59.59,0,0,1-.84-.84l1.27-1.27a.6.6,0,0,1,.84,0Zm3.8-8A4.18,4.18,0,1,1,4.31,8.43,4.17,4.17,0,0,1,8.49,4.26Zm7.75,3.58a.59.59,0,0,1,.6.59.6.6,0,0,1-.6.6H14.45a.59.59,0,0,1-.59-.6.58.58,0,0,1,.59-.59Zm-13.72,0A.6.6,0,1,1,2.52,9H.73a.6.6,0,0,1-.6-.6.59.59,0,0,1,.6-.59ZM14.39,2.53a.58.58,0,0,1,0,.84h0L13.13,4.64a.6.6,0,0,1-.85-.85l1.27-1.26a.58.58,0,0,1,.84,0Zm-11,0L4.69,3.79a.6.6,0,0,1-.84.85L2.58,3.37a.6.6,0,0,1,0-.84.58.58,0,0,1,.84,0ZM8.49.08a.59.59,0,0,1,.59.6V2.47a.58.58,0,0,1-.59.59.59.59,0,0,1-.6-.59V.68a.6.6,0,0,1,.6-.6Z" transform="translate(-0.13 -0.08)"/></svg>