<svg id="图层_1" data-name="图层 1" xmlns="http://www.w3.org/2000/svg" viewBox="0 0 16.37 16.55"><defs><style>.cls-1{fill:#fff;}</style></defs><title>可视域分析</title><path class="cls-1" d="M16.67,4.31v7.17l-.15,0h0L3.36,15.81a1.58,1.58,0,0,1-3-1.06A1.65,1.65,0,0,1,.93,14V1A4.84,4.84,0,0,1,1.42.82C6.84-.4,13.5.51,16.67,4.31ZM11.9,8.83,4.71,14.05l10.08-3.27A10.43,10.43,0,0,0,11.9,8.83ZM2.19,8v5.79a1.33,1.33,0,0,1,.52.21L10.5,8.29A18.5,18.5,0,0,0,2.19,8ZM15.41,6.28l-.49.35c.17.14.33.27.49.42V6.28ZM11.63,2.47V5a12.37,12.37,0,0,1,2.17.94l1.57-1.14-.12-.12a9.55,9.55,0,0,0-3.62-2.16Zm-4.4-.86V4.17a19.24,19.24,0,0,1,3.15.44V2.09a18.74,18.74,0,0,0-3.15-.48Zm-5,.33V4.45A21.6,21.6,0,0,1,6,4.14V1.58A19.69,19.69,0,0,0,2.19,1.94Z" transform="translate(-0.3 -0.31)"/></svg>