<?xml version="1.0" encoding="utf-8"?>
<!-- Generator: Adobe Illustrator 21.0.0, SVG Export Plug-In . SVG Version: 6.00 Build 0)  -->
<svg version="1.1" id="图层_1" xmlns="http://www.w3.org/2000/svg" xmlns:xlink="http://www.w3.org/1999/xlink" x="0px" y="0px"
	 viewBox="0 0 20 20" style="enable-background:new 0 0 20 20;" xml:space="preserve">
<style type="text/css">
	.st0{opacity:1;}
	.st1{fill:#FFFFFF;}
</style>
<g class="st0">
	<path class="st1" d="M15.1,6.8L19,3c0.6-0.6,0.6-1.4,0-2c-0.6-0.6-1.4-0.6-2,0l-3.8,3.8c-0.1,0-0.1,0-0.1,0C11.5,4,9.8,4,8.5,5.2
		c0,0,0,0.1,0,0.1l6.1,6.1c0,0,0.1,0,0.1,0c1.3-1.3,1.3-3,0.4-4.5C15.1,6.9,15.1,6.9,15.1,6.8L15.1,6.8z M15.1,6.8"/>
	<path class="st1" d="M7.8,6.2l6.1,6.1c0,0,0.1,0.1,0,0.2c-0.3,0.5-2,3.3-2.4,7c0,0,0,0-0.1,0l-2.1-1.2c0,0,0,0,0-0.1
		c0.2-0.4,2-4.3,1.9-4.1c-0.2,0.2-1.5,1.6-2.4,3l-0.6,0.8c0,0-2.2-1.5-2.8-2.4c0,0,0,0,0,0c0.4-0.5,2.7-3.5,2.7-3.5l-3.9,2.3
		c0,0,0,0-0.1,0c-0.2-0.2-1.5-1.6-1.9-2.3c0,0,0,0,0,0c0.4-0.3,2.5-2.1,2.5-2.1l-3,1c0,0,0,0-0.1,0l-1.1-2c0,0,0-0.1,0-0.1
		c0.5-0.1,4.9-1,7-2.5C7.7,6.1,7.7,6.1,7.8,6.2L7.8,6.2z M7.8,6.2"/>
</g>
</svg>
